<svg width="45" height="46" viewBox="0 0 45 46" fill="none" xmlns="http://www.w3.org/2000/svg">
<rect y="0.5" width="45" height="45" rx="8" fill="#9CA3AF"/>
<path fill-rule="evenodd" clip-rule="evenodd" d="M15.6088 13.6219L12.782 9.76716C12.5898 9.50502 12.2265 9.43821 11.9536 9.61481C8.25531 12.0078 7.2387 15.6633 8.72244 18.3581C10.3451 21.3051 12.8478 24.9194 16.6866 28.7582C20.5254 32.597 24.1396 35.0997 27.0867 36.7224C29.7815 38.2061 33.437 37.1895 35.83 33.4912C36.0066 33.2183 35.9398 32.855 35.6776 32.6628L31.8229 29.8359C31.256 29.4202 30.5043 29.3565 29.8756 29.6709L28.3391 30.4391C27.0323 31.0926 25.2408 31.3221 23.545 30.4497C22.4113 29.8664 20.6639 28.758 18.6753 26.7695C16.6868 24.7809 15.5784 23.0335 14.9951 21.8998C14.1227 20.204 14.3522 18.4125 15.0056 17.1057L15.7739 15.5692C16.0883 14.9405 16.0245 14.1888 15.6088 13.6219ZM9.91641 6.46642C5.15295 9.54866 2.70091 15.1967 5.43747 20.1668C7.22346 23.4105 9.93627 27.3112 14.0349 31.4098C18.1336 35.5085 22.0343 38.2213 25.278 40.0073C30.2481 42.7439 35.8961 40.2918 38.9784 35.5284C40.2339 33.5881 39.7589 31.0054 37.8953 29.6387L34.0405 26.8119C32.3399 25.5648 30.0847 25.3737 28.1985 26.3168L26.662 27.085C26.2173 27.3074 25.7027 27.3426 25.2605 27.1151C24.4549 26.7006 23.0272 25.818 21.327 24.1178C19.6267 22.4176 18.7442 20.9899 18.3297 20.1842C18.1022 19.7421 18.1374 19.2275 18.3598 18.7828L19.128 17.2463C20.0711 15.3601 19.8799 13.1049 18.6329 11.4043L15.8061 7.54954C14.4394 5.68589 11.8567 5.21093 9.91641 6.46642Z" fill="white"/>
</svg>
