<svg width="65" height="65" viewBox="0 0 65 65" fill="none" xmlns="http://www.w3.org/2000/svg">
<rect x="0.5" y="0.5" width="64" height="64" rx="12" fill="#9CA3AF"/>
<path fill-rule="evenodd" clip-rule="evenodd" d="M8.49992 5.83337C9.97268 5.83337 11.1666 7.02728 11.1666 8.50004V51.1667C11.1666 52.6395 12.3605 53.8334 13.8333 53.8334H56.4999C57.9727 53.8334 59.1666 55.0273 59.1666 56.5C59.1666 57.9728 57.9727 59.1667 56.4999 59.1667H13.8333C9.41497 59.1667 5.83325 55.585 5.83325 51.1667V8.50004C5.83325 7.02728 7.02716 5.83337 8.49992 5.83337Z" fill="white"/>
<path d="M45.8333 17.8334C44.3606 17.8334 43.1667 19.0273 43.1667 20.5C43.1667 21.9728 44.3606 23.1667 45.8333 23.1667H50.0621L39.1667 34.0621L32.2712 27.1667C30.1884 25.0839 26.8116 25.0839 24.7288 27.1667L17.281 34.6144C16.2397 35.6558 16.2397 37.3443 17.281 38.3857C18.3224 39.4271 20.0109 39.4271 21.0523 38.3857L28.5 30.9379L35.3954 37.8334C37.4782 39.9162 40.8551 39.9162 42.9379 37.8334L53.8333 26.9379V31.1667C53.8333 32.6395 55.0272 33.8334 56.5 33.8334C57.9728 33.8334 59.1667 32.6395 59.1667 31.1667V20.5C59.1667 19.0273 57.9728 17.8334 56.5 17.8334H45.8333Z" fill="white"/>
</svg>
