<svg width="45" height="46" viewBox="0 0 45 46" fill="none" xmlns="http://www.w3.org/2000/svg">
<rect y="0.5" width="45" height="45" rx="8" fill="#9CA3AF"/>
<path fill-rule="evenodd" clip-rule="evenodd" d="M28.125 13.625H16.875C15.8395 13.625 15 14.4645 15 15.5V36.125C15 37.1605 15.8395 38 16.875 38H28.125C29.1605 38 30 37.1605 30 36.125V15.5C30 14.4645 29.1605 13.625 28.125 13.625ZM16.875 9.875C13.7684 9.875 11.25 12.3934 11.25 15.5V36.125C11.25 39.2316 13.7684 41.75 16.875 41.75H28.125C31.2316 41.75 33.75 39.2316 33.75 36.125V15.5C33.75 12.3934 31.2316 9.875 28.125 9.875H16.875Z" fill="white"/>
<path fill-rule="evenodd" clip-rule="evenodd" d="M18.75 6.125C18.75 5.08947 19.5895 4.25 20.625 4.25H24.375C25.4105 4.25 26.25 5.08947 26.25 6.125C26.25 7.16053 25.4105 8 24.375 8H20.625C19.5895 8 18.75 7.16053 18.75 6.125Z" fill="white"/>
<path fill-rule="evenodd" clip-rule="evenodd" d="M25.7009 18.8617C26.4331 19.5939 26.4331 20.7811 25.7009 21.5133L23.2767 23.9375H26.2501C27.0084 23.9375 27.6921 24.3943 27.9823 25.095C28.2725 25.7956 28.1121 26.6021 27.5759 27.1383L21.9509 32.7633C21.2186 33.4956 20.0315 33.4956 19.2992 32.7633C18.567 32.0311 18.567 30.8439 19.2992 30.1117L21.7234 27.6875H18.7501C17.9917 27.6875 17.308 27.2307 17.0178 26.53C16.7276 25.8294 16.888 25.0229 17.4242 24.4867L23.0492 18.8617C23.7815 18.1294 24.9686 18.1294 25.7009 18.8617Z" fill="white"/>
</svg>
