<svg width="45" height="46" viewBox="0 0 45 46" fill="none" xmlns="http://www.w3.org/2000/svg">
<rect y="0.5" width="45" height="45" rx="8" fill="#9CA3AF"/>
<path fill-rule="evenodd" clip-rule="evenodd" d="M23.6191 24.6102C24.5656 23.6637 25.945 23.2935 27.2383 23.6388C29.7513 24.3099 32.5276 23.6566 34.4873 21.697C35.8307 20.3536 36.5598 18.6246 36.6699 16.8627L35.8131 17.7195C33.6164 19.9162 30.0549 19.9162 27.8582 17.7195C25.6615 15.5228 25.6615 11.9612 27.8582 9.76452L28.715 8.90774C26.953 9.01788 25.2241 9.74695 23.8807 11.0904C21.921 13.05 21.2677 15.8263 21.9388 18.3394C22.2842 19.6327 21.914 21.012 20.9674 21.9586L10.6224 32.3036C9.89018 33.0358 9.89018 34.223 10.6224 34.9552C11.3547 35.6875 12.5418 35.6875 13.2741 34.9552L23.6191 24.6102ZM26.2707 27.2619C30.0239 28.2642 34.1945 27.2931 37.1389 24.3486C40.5334 20.9541 41.3052 15.9301 39.4543 11.7946C38.9806 10.7363 37.6078 10.6215 36.788 11.4413L33.1615 15.0678C32.4292 15.8001 31.2421 15.8001 30.5098 15.0678C29.7776 14.3356 29.7776 13.1484 30.5098 12.4162L34.1363 8.78967C34.9562 7.96982 34.8414 6.59703 33.7831 6.12337C29.6476 4.27244 24.6235 5.04422 21.229 8.43873C18.2846 11.3832 17.3135 15.5537 18.3158 19.3069L7.97077 29.6519C5.77407 31.8486 5.77407 35.4102 7.97077 37.6069C10.1675 39.8036 13.729 39.8036 15.9257 37.6069L26.2707 27.2619Z" fill="white"/>
</svg>
