<svg width="1875" height="938" viewBox="0 0 1875 938" fill="none" xmlns="http://www.w3.org/2000/svg">
<path d="M692.98 211.62C685.59 202.89 675.36 196.27 662.86 192.06C650.36 187.85 634.45 185.74 615.41 185.74H599.78V481.02L615.41 480.72C633.6 480.72 648.94 478.61 661.73 474.4C674.23 470.19 684.46 462.96 692.42 453.03C700.09 442.8 705.78 429.55 709.19 413C712.6 396.14 714.31 375.67 714.31 351.29V293.8C714.31 275.14 712.6 258.88 709.48 245.34C706.35 231.79 700.67 220.36 693 211.63L692.98 211.62Z" fill="white"/>
<path d="M307.94 522.86C300.84 513.83 291.17 506.91 279.24 502.39C267.3 497.57 252.81 495.17 235.76 495.17H206.49V756.74H236.04V756.14C249.96 756.14 262.47 754.33 273.83 750.72C285.48 746.81 295.14 740.79 303.1 732.96C311.34 724.83 317.59 714.3 322.14 701.96C326.69 689.32 328.96 674.57 328.96 657.71V601.12C328.96 583.96 327.26 568.91 324.13 555.97C321 542.73 315.61 531.59 307.93 522.86H307.94Z" fill="white"/>
<path d="M226.39 416.6C240.31 416.6 253.1 414.79 264.75 411.48C276.4 407.87 286.06 402.15 294.02 394.92C302.26 387.39 308.51 377.46 313.06 365.42C317.61 353.08 319.88 338.63 319.88 321.47V291.67C319.88 274.51 318.18 259.46 315.05 246.52C311.92 233.58 306.52 222.44 298.85 213.41C291.75 204.38 282.08 197.46 269.87 192.94C258.22 187.82 243.73 185.41 226.39 185.41H206.5V416.28H226.39V416.58V416.6Z" fill="white"/>
<path d="M0 0V937.22H1874.45V0H0ZM438.51 646.57C438.51 673.21 435.59 696.77 429.83 716.61C424.39 736.01 416.46 753.21 406.27 767.72C395.47 782.43 383.52 793.76 369.71 802.42C355.9 811.26 340.42 818.38 323.72 823.56C307.35 828.34 290.06 831.73 270.82 833.92C252.27 835.73 232.95 836.65 213.32 836.65H100.65V101H209.62C225.28 101 241.16 101.59 258.17 102.81C275.03 104.02 291.55 106.48 307.28 110.11C322.67 113.6 338.14 119.27 353.24 126.95C367.62 134.26 380.41 144.27 391.25 156.68C402.57 169.62 411.33 185.44 417.27 203.69C423.82 221.53 427.15 243.74 427.15 269.7V305.22C427.15 325.11 424.41 343.45 418.99 359.75C413.85 376.08 407 390.48 398.07 403.73C389.54 416.08 379.42 426.69 367.97 435.31C358.76 441.82 349.73 446.6 340.53 449.84C371.65 457.66 395.6 474.92 411.8 501.23C429.53 529.55 438.52 566 438.52 609.54V646.56L438.51 646.57ZM727.69 836.35L636.47 563.94H603.6V836.35H494.2L493.91 100.99H610.56C623.47 100.99 637.8 101.6 653.16 102.81C669.5 104.07 684.88 106.87 700.17 111.37C715.73 115.56 730.62 122.09 745.62 131.31C760.43 140.23 773.7 152.72 785.02 168.4C796.47 183.87 805.5 203.27 812.59 227.67C819.39 250.46 822.69 278.31 822.69 312.76V331.12C822.69 387.01 815.03 433.11 799.92 468.14C785.08 502.24 763.15 527.52 734.7 543.32L845.7 836.36H727.69V836.35ZM998.59 836.65H887.2V101H998.59V836.66V836.65ZM1382.78 667.03C1382.78 726.47 1369.73 770.89 1343.99 799.08C1317.86 828.29 1281.43 842.66 1232.62 842.97C1221.07 842.97 1209.13 841.94 1197.09 839.91C1184.05 837.98 1171.11 834.04 1158.7 828.19C1146.18 822.02 1133.84 813.32 1121.99 802.29C1110.33 790.87 1100.24 776.36 1091.07 757.87C1082.37 739.75 1075.2 717.27 1069.72 691.01C1064.57 664.34 1061.97 632.39 1061.97 595.98V338.04C1061.97 300.24 1064.6 269.26 1070.01 243.31C1075.49 216.75 1082.77 194.34 1091.66 176.73C1100.81 158.29 1111.42 143.53 1123.18 132.9C1134.84 122.36 1147.2 114.15 1159.92 108.51C1172.01 102.85 1184.66 99.01 1197.46 97.12C1208.43 95.5 1220.07 94.68 1232.05 94.68C1259.64 94.68 1283.15 98.93 1301.91 107.32C1320.67 115.27 1336.06 126.77 1347.59 141.49C1359.15 155.56 1367.43 172.59 1372.17 192.02C1376.95 210.5 1379.39 230.89 1379.39 252.56V343.01H1279.08V302.53C1279.08 263.33 1274.98 233.56 1266.88 214.04C1259.19 195.5 1248.26 186.49 1233.48 186.49C1224.53 186.49 1216.57 188.37 1209.83 192.09C1203.31 195.68 1197.54 202.22 1193.14 210.98C1188.6 219.75 1185 231.7 1182.12 247.55C1179.72 264.1 1178.49 283.55 1178.49 305.23V637.54C1178.49 660.97 1179.41 679.31 1181.3 693.61C1183.6 708.85 1186.73 720.28 1190.86 728.48C1195.06 736.82 1200.46 742.86 1206.91 746.44C1213.78 749.78 1222.34 751.47 1232.34 751.47C1238.75 751.47 1244.38 750.07 1250.08 747.05C1255.76 744.04 1260.77 739.28 1264.95 732.92C1269.49 726.13 1273.04 717.84 1275.82 707.55C1278.74 696.4 1280.23 683.98 1280.23 670.66V595.86H1382.81V667.05L1382.78 667.03ZM1668.57 836.5L1544.92 520.24V836.5H1433.53V100.85H1544.92V434.65L1676.25 100.85H1787.73L1638.44 469.29L1787.74 836.51H1668.58L1668.57 836.5Z" fill="white"/>
</svg>
